<svg xmlns="http://www.w3.org/2000/svg" viewBox="0 0 24 24" fill="none">
  <path d="M3.2 12.2 5.4 7.6c.5-1 1.5-1.6 2.6-1.6h8c1.1 0 2.1.6 2.6 1.6l2.2 4.6" stroke="rgba(6,16,30,0.95)" stroke-width="2" stroke-linecap="round"/>
  <path d="M4 12h16c.6 0 1 .4 1 1v4c0 .6-.4 1-1 1h-1.2a2 2 0 0 1-3.6 0H8.8a2 2 0 0 1-3.6 0H4c-.6 0-1-.4-1-1v-4c0-.6.4-1 1-1Z" fill="rgba(255,255,255,0.95)" stroke="rgba(6,16,30,0.95)" stroke-width="1.6"/>
  <circle cx="7.5" cy="18" r="1.6" fill="rgba(6,16,30,0.95)"/>
  <circle cx="16.5" cy="18" r="1.6" fill="rgba(6,16,30,0.95)"/>
  <path d="M7.4 9h9.2" stroke="rgba(6,16,30,0.65)" stroke-width="1.6" stroke-linecap="round"/>
</svg>